<mxfile host="app.diagrams.net" modified="2023-02-27T22:57:31.067Z" agent="5.0 (Windows NT 10.0; Win64; x64) AppleWebKit/537.36 (KHTML, like Gecko) Chrome/110.0.0.0 Safari/537.36" etag="XM8Fx0XdJs8xwZmDo2-f" version="20.8.23" type="github">
  <diagram id="C5RBs43oDa-KdzZeNtuy" name="Page-1">
    <mxGraphModel dx="1372" dy="836" grid="1" gridSize="10" guides="1" tooltips="1" connect="1" arrows="1" fold="1" page="1" pageScale="1" pageWidth="827" pageHeight="1169" math="0" shadow="0">
      <root>
        <mxCell id="WIyWlLk6GJQsqaUBKTNV-0" />
        <mxCell id="WIyWlLk6GJQsqaUBKTNV-1" parent="WIyWlLk6GJQsqaUBKTNV-0" />
        <mxCell id="WIyWlLk6GJQsqaUBKTNV-2" value="" style="rounded=0;html=1;jettySize=auto;orthogonalLoop=1;fontSize=11;endArrow=block;endFill=0;endSize=8;strokeWidth=1;shadow=0;labelBackgroundColor=none;edgeStyle=orthogonalEdgeStyle;" parent="WIyWlLk6GJQsqaUBKTNV-1" target="WIyWlLk6GJQsqaUBKTNV-6" edge="1">
          <mxGeometry relative="1" as="geometry">
            <mxPoint x="280" y="100" as="sourcePoint" />
            <Array as="points">
              <mxPoint x="390" y="100" />
              <mxPoint x="390" y="210" />
            </Array>
          </mxGeometry>
        </mxCell>
        <mxCell id="cNk4DbZ6GNwxPfYNXBRW-2" value="" style="edgeStyle=orthogonalEdgeStyle;rounded=0;orthogonalLoop=1;jettySize=auto;html=1;fontFamily=Courier New;fontSize=13;" edge="1" parent="WIyWlLk6GJQsqaUBKTNV-1" source="cNk4DbZ6GNwxPfYNXBRW-1">
          <mxGeometry relative="1" as="geometry">
            <mxPoint x="150" y="285" as="targetPoint" />
            <Array as="points">
              <mxPoint x="150" y="245" />
              <mxPoint x="150" y="245" />
            </Array>
          </mxGeometry>
        </mxCell>
        <mxCell id="cNk4DbZ6GNwxPfYNXBRW-1" value="&lt;font style=&quot;font-size: 13px;&quot; face=&quot;Courier New&quot;&gt;&lt;b&gt;Take two&lt;br&gt;number inputs&lt;/b&gt;&lt;/font&gt;" style="shape=parallelogram;perimeter=parallelogramPerimeter;whiteSpace=wrap;html=1;fixedSize=1;strokeColor=default;strokeWidth=5;" vertex="1" parent="WIyWlLk6GJQsqaUBKTNV-1">
          <mxGeometry x="75" y="160" width="150" height="75" as="geometry" />
        </mxCell>
        <mxCell id="cNk4DbZ6GNwxPfYNXBRW-3" value="&lt;b&gt;square each input&lt;/b&gt;" style="rounded=0;whiteSpace=wrap;html=1;strokeColor=default;strokeWidth=5;fontFamily=Courier New;fontSize=13;" vertex="1" parent="WIyWlLk6GJQsqaUBKTNV-1">
          <mxGeometry x="90" y="285" width="120" height="60" as="geometry" />
        </mxCell>
        <mxCell id="cNk4DbZ6GNwxPfYNXBRW-4" value="" style="edgeStyle=orthogonalEdgeStyle;rounded=0;orthogonalLoop=1;jettySize=auto;html=1;fontFamily=Courier New;fontSize=13;" edge="1" parent="WIyWlLk6GJQsqaUBKTNV-1">
          <mxGeometry relative="1" as="geometry">
            <mxPoint x="150" y="345" as="sourcePoint" />
            <mxPoint x="150" y="405" as="targetPoint" />
            <Array as="points">
              <mxPoint x="150" y="365" />
              <mxPoint x="150" y="365" />
            </Array>
          </mxGeometry>
        </mxCell>
        <mxCell id="cNk4DbZ6GNwxPfYNXBRW-8" value="" style="edgeStyle=orthogonalEdgeStyle;rounded=0;orthogonalLoop=1;jettySize=auto;html=1;fontFamily=Courier New;fontSize=13;" edge="1" parent="WIyWlLk6GJQsqaUBKTNV-1" source="cNk4DbZ6GNwxPfYNXBRW-5" target="cNk4DbZ6GNwxPfYNXBRW-6">
          <mxGeometry relative="1" as="geometry" />
        </mxCell>
        <mxCell id="cNk4DbZ6GNwxPfYNXBRW-5" value="&lt;b&gt;sum the two numbers&lt;/b&gt;" style="rounded=0;whiteSpace=wrap;html=1;strokeColor=default;strokeWidth=5;fontFamily=Courier New;fontSize=13;" vertex="1" parent="WIyWlLk6GJQsqaUBKTNV-1">
          <mxGeometry x="90" y="405" width="120" height="60" as="geometry" />
        </mxCell>
        <mxCell id="cNk4DbZ6GNwxPfYNXBRW-6" value="&lt;b&gt;print the&lt;br&gt;sum&lt;br&gt;&lt;/b&gt;" style="shape=parallelogram;perimeter=parallelogramPerimeter;whiteSpace=wrap;html=1;fixedSize=1;fontSize=13;fontFamily=Courier New;rounded=0;strokeWidth=5;strokeColor=default;" vertex="1" parent="WIyWlLk6GJQsqaUBKTNV-1">
          <mxGeometry x="90" y="525" width="120" height="60" as="geometry" />
        </mxCell>
        <mxCell id="cNk4DbZ6GNwxPfYNXBRW-9" value="This flowchart depicts instructions on how to calculate the sum of squares" style="text;html=1;align=center;verticalAlign=middle;resizable=0;points=[];autosize=1;strokeColor=none;fillColor=none;fontSize=13;fontFamily=Lucida Console;fontStyle=1;labelBackgroundColor=#00FF00;" vertex="1" parent="WIyWlLk6GJQsqaUBKTNV-1">
          <mxGeometry x="100" y="20" width="620" height="30" as="geometry" />
        </mxCell>
        <mxCell id="cNk4DbZ6GNwxPfYNXBRW-10" value="a. The way I understood it" style="text;html=1;align=center;verticalAlign=middle;resizable=0;points=[];autosize=1;strokeColor=none;fillColor=none;fontSize=13;fontFamily=Lucida Console;" vertex="1" parent="WIyWlLk6GJQsqaUBKTNV-1">
          <mxGeometry x="50" y="110" width="230" height="30" as="geometry" />
        </mxCell>
        <mxCell id="cNk4DbZ6GNwxPfYNXBRW-11" value="b. after a quick google search&lt;br&gt;realising it&#39;s a statistical term" style="text;html=1;align=center;verticalAlign=middle;resizable=0;points=[];autosize=1;strokeColor=none;fillColor=none;fontSize=13;fontFamily=Lucida Console;" vertex="1" parent="WIyWlLk6GJQsqaUBKTNV-1">
          <mxGeometry x="460" y="105" width="280" height="40" as="geometry" />
        </mxCell>
        <mxCell id="cNk4DbZ6GNwxPfYNXBRW-15" value="" style="edgeStyle=orthogonalEdgeStyle;rounded=0;orthogonalLoop=1;jettySize=auto;html=1;fontFamily=Lucida Console;fontSize=13;" edge="1" parent="WIyWlLk6GJQsqaUBKTNV-1" source="cNk4DbZ6GNwxPfYNXBRW-13" target="cNk4DbZ6GNwxPfYNXBRW-14">
          <mxGeometry relative="1" as="geometry" />
        </mxCell>
        <mxCell id="cNk4DbZ6GNwxPfYNXBRW-13" value="&lt;span style=&quot;&quot;&gt;create a variable &lt;b&gt;i &lt;/b&gt;which is 0&lt;/span&gt;" style="rounded=1;whiteSpace=wrap;html=1;labelBackgroundColor=none;strokeColor=default;strokeWidth=5;fontFamily=Lucida Console;fontSize=13;" vertex="1" parent="WIyWlLk6GJQsqaUBKTNV-1">
          <mxGeometry x="470" y="157.5" width="180" height="75" as="geometry" />
        </mxCell>
        <mxCell id="cNk4DbZ6GNwxPfYNXBRW-18" value="" style="edgeStyle=orthogonalEdgeStyle;rounded=0;orthogonalLoop=1;jettySize=auto;html=1;fontFamily=Lucida Console;fontSize=13;" edge="1" parent="WIyWlLk6GJQsqaUBKTNV-1" source="cNk4DbZ6GNwxPfYNXBRW-14" target="cNk4DbZ6GNwxPfYNXBRW-16">
          <mxGeometry relative="1" as="geometry" />
        </mxCell>
        <mxCell id="cNk4DbZ6GNwxPfYNXBRW-14" value="&lt;b&gt;FOR i&lt;/b&gt;&lt;i&gt;&amp;nbsp;&lt;b&gt;=&lt;/b&gt; array&amp;nbsp;&lt;/i&gt;&lt;b&gt;INPUT&lt;br&gt;AND X&lt;sub&gt;i&lt;/sub&gt;&amp;nbsp;= INPUT&lt;/b&gt;" style="shape=parallelogram;perimeter=parallelogramPerimeter;whiteSpace=wrap;html=1;fixedSize=1;labelBackgroundColor=#FFFFFF;strokeColor=default;strokeWidth=5;fontFamily=Lucida Console;fontSize=13;" vertex="1" parent="WIyWlLk6GJQsqaUBKTNV-1">
          <mxGeometry x="460" y="270" width="200" height="60" as="geometry" />
        </mxCell>
        <mxCell id="cNk4DbZ6GNwxPfYNXBRW-16" value="&lt;b&gt;WHERE X &lt;/b&gt;= (sum of &lt;b&gt;inputs&lt;/b&gt; in the array) / number of &lt;b&gt;INPUT&lt;/b&gt;" style="whiteSpace=wrap;html=1;labelBackgroundColor=none;strokeColor=default;strokeWidth=5;fontFamily=Lucida Console;fontSize=13;" vertex="1" parent="WIyWlLk6GJQsqaUBKTNV-1">
          <mxGeometry x="453.75" y="375" width="212.5" height="55" as="geometry" />
        </mxCell>
        <mxCell id="cNk4DbZ6GNwxPfYNXBRW-19" style="edgeStyle=orthogonalEdgeStyle;rounded=0;orthogonalLoop=1;jettySize=auto;html=1;exitX=0.75;exitY=1;exitDx=0;exitDy=0;entryX=0.5;entryY=1;entryDx=0;entryDy=0;fontFamily=Lucida Console;fontSize=13;" edge="1" parent="WIyWlLk6GJQsqaUBKTNV-1" source="cNk4DbZ6GNwxPfYNXBRW-1" target="cNk4DbZ6GNwxPfYNXBRW-1">
          <mxGeometry relative="1" as="geometry" />
        </mxCell>
        <mxCell id="cNk4DbZ6GNwxPfYNXBRW-20" value="" style="edgeStyle=orthogonalEdgeStyle;rounded=0;orthogonalLoop=1;jettySize=auto;html=1;fontFamily=Lucida Console;fontSize=13;" edge="1" parent="WIyWlLk6GJQsqaUBKTNV-1" target="cNk4DbZ6GNwxPfYNXBRW-21">
          <mxGeometry relative="1" as="geometry">
            <mxPoint x="560" y="425" as="sourcePoint" />
          </mxGeometry>
        </mxCell>
        <mxCell id="cNk4DbZ6GNwxPfYNXBRW-21" value="Create a&amp;nbsp;&lt;b&gt;VAR E &lt;/b&gt;= value of each &lt;b&gt;i&lt;/b&gt; in the array - X" style="whiteSpace=wrap;html=1;labelBackgroundColor=none;strokeColor=default;strokeWidth=5;fontFamily=Lucida Console;fontSize=13;" vertex="1" parent="WIyWlLk6GJQsqaUBKTNV-1">
          <mxGeometry x="453.75" y="470" width="212.5" height="55" as="geometry" />
        </mxCell>
        <mxCell id="cNk4DbZ6GNwxPfYNXBRW-23" value="" style="edgeStyle=orthogonalEdgeStyle;rounded=0;orthogonalLoop=1;jettySize=auto;html=1;fontFamily=Lucida Console;fontSize=13;" edge="1" parent="WIyWlLk6GJQsqaUBKTNV-1" target="cNk4DbZ6GNwxPfYNXBRW-24">
          <mxGeometry relative="1" as="geometry">
            <mxPoint x="560" y="525" as="sourcePoint" />
          </mxGeometry>
        </mxCell>
        <mxCell id="cNk4DbZ6GNwxPfYNXBRW-26" value="" style="edgeStyle=orthogonalEdgeStyle;rounded=0;orthogonalLoop=1;jettySize=auto;html=1;fontFamily=Lucida Console;fontSize=13;" edge="1" parent="WIyWlLk6GJQsqaUBKTNV-1" source="cNk4DbZ6GNwxPfYNXBRW-24" target="cNk4DbZ6GNwxPfYNXBRW-25">
          <mxGeometry relative="1" as="geometry" />
        </mxCell>
        <mxCell id="cNk4DbZ6GNwxPfYNXBRW-24" value="Create a&amp;nbsp;&lt;b&gt;VAR TSS&amp;nbsp;&lt;/b&gt;= (value of each &lt;b&gt;E&lt;/b&gt; * &lt;b&gt;E&lt;/b&gt;) &lt;b&gt;AND &lt;/b&gt;the addition of these squares" style="whiteSpace=wrap;html=1;labelBackgroundColor=none;strokeColor=default;strokeWidth=5;fontFamily=Lucida Console;fontSize=13;" vertex="1" parent="WIyWlLk6GJQsqaUBKTNV-1">
          <mxGeometry x="453.75" y="570" width="212.5" height="55" as="geometry" />
        </mxCell>
        <mxCell id="cNk4DbZ6GNwxPfYNXBRW-25" value="&lt;b&gt;RETURN &lt;/b&gt;a print&lt;br&gt;&quot;Sum of squares is &quot; + &lt;b&gt;TSS&lt;/b&gt;" style="rounded=1;whiteSpace=wrap;html=1;labelBackgroundColor=none;strokeColor=default;strokeWidth=5;fontFamily=Lucida Console;fontSize=13;" vertex="1" parent="WIyWlLk6GJQsqaUBKTNV-1">
          <mxGeometry x="470" y="670" width="180" height="75" as="geometry" />
        </mxCell>
      </root>
    </mxGraphModel>
  </diagram>
</mxfile>
